<svg height="32" viewBox="0 0 147 32" width="147" xmlns="http://www.w3.org/2000/svg"><path d="m72.8318613 19.3268608-.0826834.038835-.6360265.2977346 5.8132819 12.2977346h-8.4209904c-.2427728-.0228432-.4602122-.1623433-.5851443-.3754045l-1.0939655-2.5113268-3.580829-8.2524272h-2.6776714c-.9170601.0009794-1.6867794.7034416-1.7872343 1.6310679l-.985841 9.5469256c-3.5490277-1.2168285-6.9326884-5.1779935-6.9326884-9.1521036 0-4.9449838 3.8543203-8.5566343 8.7708048-8.5242718h5.6606355c.9415769.0297269 1.8778857-.1537647 2.7412741-.5372168 1.191044-.5540558 1.9992316-1.7148685 2.1179681-3.0420712.1780874-1.7022654-.8459152-3.68284793-4.3186197-3.68284793h-5.4507467l-.3752557 3.64401293c-3.0835594-.0253001-6.0697067 1.0981492-8.3955492 3.1585761l1.3547363-13.04207123c.0487358-.46688371.4354282-.82132687.8967974-.82200647h13.7572523c7.7786036 0 11.3085504 5.17799353 10.7742882 10.2977346-.4642993 4.2588997-2.5250251 7.1326861-6.5637931 9.0291262zm62.7419697 12.6536714c-.165984.0059201-.323032-.0774312-.414715-.2201044l-8.954076-14.2420475-1.401234 13.665892c-.045342.4648486-.426233.8180221-.879699.8156809h-6.063637c-.258465.0026945-.505183-.1110313-.675478-.3113635-.170294-.2003323-.247181-.4672924-.210504-.7308955l3.091512-30.14782516c.054056-.46183468.434462-.80927695.885983-.80920725h6.06992c.249951.00055376.488046.10985485.655585.30095591.167539.19110105.248932.44622067.224114.70246108l-1.539473 14.98651822 12.064439-15.73746255c.115907-.15522461.293791-.24804702.483834-.25247266h7.351767c.195257-.01055106.376061.10587002.452417.29131461.08061.19038249.048912.41144471-.081686.5696819l-10.732324 14.3456261c-.516118.6447217-.583993 1.5537935-.169656 2.2722539l8.526793 13.5946818c.107985.1782773.107985.4043519 0 .5826292-.112671.1858077-.308917.3002965-.521535.3042619zm-116.9524159.0194326c-.1663491.0020245-.3222967-.0833431-.4139968-.2266266l-8.98247417-14.2969015-1.37998905 13.953724c-.04119135.3243947-.3103349.5661039-.62726775.563329h-6.7243103c-.14083238.0031243-.27596832-.0573723-.37000198-.1656398-.09403366-.1082674-.13759353-.2535156-.11926687-.3976892l3.13633876-30.61401728c.04803861-.46349042.42660813-.81519503.87817485-.81585579h6.06567921c.250729.00036683.4895251.11056783.6569897.30319134.1674645.19262351.2478587.44956631.2211851.70691583l-1.54935134 14.9832564 12.05608624-15.73436173c.1157905-.15945247.2962585-.25498594.4892688-.25900184h7.3390327c.193967-.00682766.3725814.10840785.4516328.29137707.0804708.19042331.0488278.41153293-.0815448.56980404l-10.7200059 14.34870186c-.5145057.6476497-.582162 1.5581432-.1693623 2.2792162l8.5120234 13.5975965c.1093157.1778636.1093157.4048906 0 .5827541-.1109798.1883269-.3071512.3054354-.5206322.3108022zm22.5847701-.0193744h-6.0970909c-.2570451-.0001763-.5018287-.1118462-.6729766-.3070109-.1711479-.1951646-.2524303-.4553168-.2234674-.7152289l3.1343752-30.13666549c.0458988-.46815172.4341263-.82399809.896444-.82167379h6.0970908c.2551524.00238316.4975765.11376997.6680711.30695917s.2533647.45039659.2283729.70881079l-3.1343751 30.16254492c-.0487166.4666948-.4352566.8209945-.896444.8216738zm63.6272008-12.6421351-.082664.0388193-.63588.2976142 5.805583 12.2927618h-8.425408c-.24306-.0218001-.460874-.1615163-.585009-.3752527l-1.080996-2.477962-3.5863623-8.2490902h-2.6643366c-.9214603-.0019696-1.6955017.7046024-1.7931812 1.6368783l-.9856138 9.497776c-3.5545683-1.2163364-6.9374491-5.1758997-6.9374491-9.1484027 0-4.9429843 3.8597907-8.5531743 8.7751419-8.520825h5.6784071c.9412245.0279998 1.876952-.1553461 2.740642-.5369996 1.19077-.5538317 1.998771-1.7141749 2.11748-3.040841.171688-1.70157707-.852079-3.68135871-4.3176242-3.68135871h-5.4494903l-.3751691 3.64253941c-3.0828487-.0252898-6.0683077 1.0977051-8.393614 3.1572988l1.3544241-13.03679737c.0390414-.46591686.4180066-.82635506.8775142-.83461383h13.7540813c7.77681 0 11.305944 5.17589972 10.771805 10.2935706-.438758 4.2571775-2.524443 7.1298018-6.562281 9.0448847z" fill="#fff" fill-rule="evenodd"/></svg>